<svg xmlns="http://www.w3.org/2000/svg" width="26.764" height="26.764" viewBox="0 0 26.764 26.764">
  <path id="Icon_awesome-facebook-square" data-name="Icon awesome-facebook-square" d="M23.9,2.25H2.868A2.868,2.868,0,0,0,0,5.118V26.146a2.868,2.868,0,0,0,2.868,2.868h8.2v-9.1H7.3V15.632h3.764V12.368c0-3.713,2.21-5.764,5.6-5.764a22.8,22.8,0,0,1,3.317.289v3.644H18.111A2.142,2.142,0,0,0,15.7,12.851v2.781h4.109l-.657,4.283H15.7v9.1h8.2a2.868,2.868,0,0,0,2.868-2.868V5.118A2.868,2.868,0,0,0,23.9,2.25Z" transform="translate(0 -2.25)" fill="#959586"/>
</svg>
