<svg xmlns="http://www.w3.org/2000/svg" width="26.649" height="26.649" viewBox="0 0 26.649 26.649">
  <path id="Icon_awesome-github-square" data-name="Icon awesome-github-square" d="M23.794,2.25H2.855A2.856,2.856,0,0,0,0,5.105V26.044A2.856,2.856,0,0,0,2.855,28.9H23.794a2.856,2.856,0,0,0,2.855-2.855V5.105A2.856,2.856,0,0,0,23.794,2.25ZM16.5,25.074c-.5.089-.684-.22-.684-.476,0-.321.012-1.963.012-3.289a2.318,2.318,0,0,0-.672-1.826c2.2-.244,4.521-.547,4.521-4.348a3.054,3.054,0,0,0-1.017-2.32,3.72,3.72,0,0,0-.1-2.677c-.827-.256-2.718,1.065-2.718,1.065a9.358,9.358,0,0,0-4.949,0S8.994,9.882,8.167,10.138a3.692,3.692,0,0,0-.1,2.677,2.988,2.988,0,0,0-.928,2.32c0,3.783,2.219,4.1,4.42,4.348a2.156,2.156,0,0,0-.631,1.327,2.087,2.087,0,0,1-2.873-.827,2.072,2.072,0,0,0-1.517-1.017c-.964-.012-.065.607-.065.607.642.3,1.095,1.44,1.095,1.44.577,1.767,3.337,1.172,3.337,1.172,0,.827.012,2.171.012,2.415s-.178.565-.684.476a9.869,9.869,0,0,1-6.674-9.416,9.44,9.44,0,0,1,9.636-9.607,9.651,9.651,0,0,1,9.886,9.607A9.778,9.778,0,0,1,16.5,25.074ZM10.66,21.44c-.113.024-.22-.024-.232-.1s.065-.167.178-.19.22.036.232.113S10.779,21.416,10.66,21.44Zm-.565-.054c0,.077-.089.143-.208.143s-.22-.054-.22-.143.089-.143.208-.143S10.095,21.3,10.095,21.386Zm-.815-.065c-.024.077-.143.113-.244.077s-.19-.113-.167-.19.143-.113.244-.089C9.232,21.154,9.309,21.243,9.28,21.321ZM8.548,21c-.054.065-.167.054-.256-.036s-.113-.19-.054-.244.167-.054.256.036S8.6,20.952,8.548,21Zm-.541-.541c-.054.036-.155,0-.22-.089s-.065-.19,0-.232.167-.012.22.077a.174.174,0,0,1,0,.244Zm-.387-.577c-.054.054-.143.024-.208-.036-.065-.077-.077-.167-.024-.208s.143-.024.208.036C7.662,19.75,7.673,19.84,7.62,19.881Zm-.4-.44a.112.112,0,0,1-.167.024c-.077-.036-.113-.1-.089-.155a.14.14,0,0,1,.167-.024C7.21,19.328,7.245,19.393,7.221,19.441Z" transform="translate(0 -2.25)" fill="#959586"/>
</svg>
