<svg xmlns="http://www.w3.org/2000/svg" width="26.962" height="29.036" viewBox="0 0 26.962 29.036">
  <path id="Icon_ionic-ios-mail-open" data-name="Icon ionic-ios-mail-open" d="M29.656,13.773C29.4,13.514,19.4,3.313,19.4,3.313a3.56,3.56,0,0,0-5.081.006S4.36,13.462,4.056,13.78a2.6,2.6,0,0,0-.681,1.692v13.74a2.08,2.08,0,0,0,2.074,2.074H28.263a2.08,2.08,0,0,0,2.074-2.074v-13.8A2.5,2.5,0,0,0,29.656,13.773ZM28.4,16.515l-5.256,5.5a.125.125,0,0,0,0,.181l4.88,5.2a.841.841,0,0,1,0,1.193.845.845,0,0,1-1.193,0L17.044,18.135a.255.255,0,0,0-.376,0L6.888,28.576a.845.845,0,0,1-1.193,0,.841.841,0,0,1,0-1.193l4.88-5.2a.138.138,0,0,0,0-.181L5.3,16.509a1.478,1.478,0,0,1,1.043-2.32H27.368A1.53,1.53,0,0,1,28.4,16.515Z" transform="translate(-3.375 -2.25)" fill="#959586"/>
</svg>
