<svg xmlns="http://www.w3.org/2000/svg" width="35.997" height="36.007" viewBox="0 0 35.997 36.007">
  <path id="Icon_awesome-snowman" data-name="Icon awesome-snowman" d="M35.923,10.709l-.415-1.02a1.136,1.136,0,0,0-1.463-.612l-1.983.809V7.847a1.114,1.114,0,0,0-1.125-1.1H29.813a1.114,1.114,0,0,0-1.125,1.1v3.3c0,.035.021.07.021.105l-3.966,1.617A7.755,7.755,0,0,0,23.2,11a6.67,6.67,0,0,0,1.547-4.254A6.75,6.75,0,1,0,12.79,11a7.921,7.921,0,0,0-1.547,1.87L7.277,11.25a.561.561,0,0,0,.021-.105v-3.3a1.093,1.093,0,0,0-1.111-1.1H5.063a1.114,1.114,0,0,0-1.125,1.1V9.886L1.962,9.077A1.136,1.136,0,0,0,.5,9.689l-.415,1.02A1.088,1.088,0,0,0,.71,12.136l9.506,3.881a8.438,8.438,0,0,0-.084.858,7.754,7.754,0,0,0,.3,2.032,10.625,10.625,0,0,0,1.863,16.516,4.078,4.078,0,0,0,2.2.577h6.975a4.577,4.577,0,0,0,2.616-.823,10.647,10.647,0,0,0,1.5-16.284,7.648,7.648,0,0,0,.3-2.018c0-.3-.056-.57-.084-.858L35.3,12.136a1.1,1.1,0,0,0,.626-1.427ZM15.75,6.75a1.125,1.125,0,1,1,1.125-1.125A1.128,1.128,0,0,1,15.75,6.75ZM18,25.875a1.125,1.125,0,1,1,1.125-1.125A1.128,1.128,0,0,1,18,25.875Zm0-4.5a1.125,1.125,0,1,1,1.125-1.125A1.128,1.128,0,0,1,18,21.375Zm0-4.5a1.125,1.125,0,1,1,1.125-1.125A1.128,1.128,0,0,1,18,16.875Zm0-6.187a7.47,7.47,0,0,1-1.125-2.25,1.125,1.125,0,0,1,2.25,0A7.47,7.47,0,0,1,18,10.688ZM20.25,6.75a1.125,1.125,0,1,1,1.125-1.125A1.128,1.128,0,0,1,20.25,6.75Z" transform="translate(-0.003 0.007)" fill="#959586"/>
</svg>
